<?xml version="1.0" encoding="utf-8"?>
<!-- Generator: Adobe Illustrator 27.9.0, SVG Export Plug-In . SVG Version: 6.00 Build 0)  -->
<svg version="1.1" id="Layer_1" xmlns="http://www.w3.org/2000/svg" xmlns:xlink="http://www.w3.org/1999/xlink" x="0px" y="0px"
	 viewBox="0 0 309.3 280.3" enable-background="new 0 0 309.3 280.3" xml:space="preserve">
<g>
	<g id="XMLID_00000044869727685772661930000008752301525586849443_">
		<g>
			<path d="M307.6,125.3c1.3,2.5,1.2,5.8,1.7,7.9c-0.2,8.7-4.5,14.4-9.9,19.4c-3.2,3.1-7,5.5-10.5,8.3c-1,0.8-1.8,2-2.3,3.1
				c-1.7,3.7-3.6,7.4-4.8,11.3c-0.6,1.8-0.3,4.4,0.7,5.9c1.7,2.7,4,5.2,6.5,7.3c4.3,3.7,6.1,8.3,6.5,13.8
				c0.9,12.1-3.6,22.6-9.2,32.8c-2.3,4.2-5,8.2-6.8,12.6c-1.5,3.7-1.8,7.9-3.1,11.8c-1,3-2.2,6.3-4.2,8.6c-4.5,5.1-10,4.5-14.1-1.1
				c-0.3-0.4-0.6-0.8-0.9-1.2c-1-0.9-2.1-1.8-3.1-2.7c-0.8,1.2-1.7,2.2-2.3,3.5c-1.2,2.5-1.9,5.4-3.5,7.5c-5.1,6.6-11.7,7-16.4,0.2
				c-3.7-5.3-7.7-5.6-13.1-4.3c-3,0.8-6.2,1-9.3,1c-25.9,0.1-51.8,0.2-77.7,0.1c-3.9,0-7.9-0.6-11.8-1c-3.2-0.4-5.4,0.2-7.5,3.2
				c-5.7,7.6-14.2,9-19.7,3.6c-3.6-3.5-4.5-8.4-5-13.1c-0.4-3.2-1.3-5.5-4.3-7.2c-12.1-6.6-19.3-17.4-24.7-29.7
				c-1.2-2.7-2.1-5.6-3.5-8.1c-1.1-1.9-2.6-4-4.5-5.1c-8.9-5.5-15-13.3-19.2-22.7c-1-2.4-1.7-5.1-1.7-7.6c0.1-3.8-1.6-6-4.7-7.4
				c-8.3-3.8-14.6-10-20.4-16.8c-5-5.9-5.9-15.8-1.8-22.2c3.5-5.5,13.4-9.1,20.3-6.8c3.7,1.2,6,0.8,9-2.3c6-6.1,12.4-9.5,24.3-4.2
				c4.3,1.9,10.1-1.2,11-6.8c3.3-18.9,13.9-33.6,27-46.8c3.9-3.9,8.6-7.3,13.3-10.2c6.1-3.7,12.6-3.4,18.8,0.3
				c7,4.2,12.3,9.9,16.6,16.7c1.8,2.8,3.9,3.9,7.3,3.7c12.8-0.5,25.5-0.7,38,2.6c3.1,0.8,5.8,0,8.7-2.1c8.2-6,16.6-11.9,25.5-16.8
				c9.1-5,13.7-3.4,21,4.1c9.8,10.1,14.2,22.9,18.8,35.5c1.3,3.5,3,4.8,6.5,4.5c6.8-0.5,11.9,2.1,14.6,8.6c1.5,3.6,4,2.7,6.5,1.4
				C299.3,113.7,304.5,119.3,307.6,125.3z M302.3,135.1c0-5.6-1.6-9.4-4.2-10.6c-3.2-1.5-5.7,0.7-8.3,2c-0.4,0.2-0.8,0.6-1.2,0.9
				c-7.9,5.5-8.5,5.3-11-4.3c-2-7.7-6.7-9.7-13.6-5.9c-1.3,0.7-2.6,1.4-3.9,2.2c-2.4,1.5-3.5,3.6-3.7,6.6
				c-0.5,7.6,3.6,13.2,7.8,18.8c0.5,0.7,2.7,0.8,3.9,0.4c8.2-2.7,12.3-1.5,16.8,5.7c1.6,2.5,3,2.8,5.1,1c1.2-0.9,2.5-1.7,3.5-2.7
				C298.1,144.9,301.6,140,302.3,135.1z M283.5,224.4c4-7.4,5.1-15.4,4.1-23.6c-0.3-2.4-1.9-5-3.6-6.7c-2.6-2.6-5.8-4.7-8.9-7
				c-1.6,1.2-3.1,3-5,3.7c-1.6,0.6-3.7,0.1-5.5,0c0-1.9-0.5-4,0.3-5.5c1-2,3-3.5,4.5-5.2c5.5-6.4,10.5-12.9,9.6-22.1
				c-0.6-6.2-4.3-8-9.6-4.6c-1.1,0.7-2.2,1.5-3.1,2.5c-3.7,3.8-7.2,7.8-10.9,11.6c-1.6,1.7-3.3,3.5-5.4,4.3
				c-1.4,0.5-3.8-0.1-5.1-1.1c-1.6-1.3-1.1-3.2,0.5-4.7c2.2-2,4.4-4.1,6.4-6.2c9.1-9.5,8.7-6.1,1.9-16.8c-0.2-0.3-0.3-0.6-0.5-0.8
				c-3.8-5.4-4.6-11.6-4.4-18c0.1-4.8,3.2-7.7,6.4-10.8c0.9-0.9,1.4-3.1,0.9-4.3c-4.3-12-8.3-24.2-16.6-34.3
				c-4.3-5.2-8.2-6.7-14.3-3.7c-5.4,2.7-10.5,6.2-15.6,9.6c-2.2,1.5-4.2,3.4-6.1,5.1c0.6,1,0.7,1.4,1,1.5c1,0.5,2.1,0.9,3.2,1.3
				c13.2,6,25.8,13,35.6,24c2.7,3,3.1,5.5,0.9,7.3c-2.8,2.3-4.6,0.1-6.4-1.6c-3-2.8-5.7-6.1-9-8.6c-18.4-14-39.4-20.7-62.4-21.7
				c-20.9-0.9-40.5,4.2-59.6,11.7c-15.6,6.1-28.8,15.6-39.2,28.9c-1.5,1.9-2,3.5-1.1,5.9c2.4,6.5,1.5,12.7-1.7,18.7
				c-2.3,4.2-4.6,8.4-7.1,12.5c-1.2,2-1.8,3.6-0.2,5.8c4.2,5.9,7,12.8,12.8,17.6c2.1,1.7,2.5,4,0.6,6.1c-2.2,2.4-4.5,1.6-6.4-0.7
				c-3.2-3.8-6.2-7.7-9.2-11.6c-2.8-3.7-5-7.9-8.3-11.1c-4.2-4-8.9-2.3-9.9,3.3c-0.9,5.2-1,10.7,1.8,15.5
				c4.2,7.5,9.5,13.9,17.3,18.1c1.8,0.9,3.3,2.8,4.2,4.6c1.6,2.9,2.5,6.1,3.9,9.2c4.4,9.7,8.8,19.4,18.3,25.4
				c4.2,2.7,8.5,5.1,12.8,7.6c2.7,1.6,3.5,4.1,1.4,6.2c-2.7,2.7-1.7,5.1-0.7,7.7c0.9,2.4,2.4,4,5.3,3.1c3.2-0.9,4.7-3,4.1-6.1
				c-0.8-4.5,0.9-6,5.4-5.1c2.7,0.5,5.5,0.8,8.3,1.1c4.4,0.6,8.8,1.6,13.2,1.6c14.1,0,28.1-0.4,42.2-0.5c10.2,0,20.5,0.7,30.8,0.4
				c6-0.2,12-1.6,18.1-2.4c2.1-0.4,4.2-0.8,6.3-1.3c4.5-1.1,5.7-0.2,5.7,4.5c0,0.5-0.3,1.1-0.1,1.5c1.2,1.8,2.6,3.5,3.8,5.3
				c1.3-1.1,2.8-2.1,3.8-3.4c0.8-1,1.5-2.4,1.5-3.6c-0.1-7.2,4.1-10.6,10.5-12.2c0.2,0,0.3-0.2,0.4-0.2c2.5-0.1,5.5-1.2,7.4-0.2
				c2.5,1.4,0.7,4.1-0.4,6.1c-0.3,0.6-0.6,1.5-0.3,1.9c0.8,1.4,1.7,2.9,3,3.6c0.5,0.3,2.7-1.3,3.1-2.4c0.8-2.3,0.9-4.8,1.4-7.3
				c0.4-2.2,0.5-4.7,1.5-6.7C275.2,239.5,279.4,232,283.5,224.4z M133.7,83.4c3.7-1.1,4.1-2,1.8-5.1c-1.9-2.7-4.1-5.3-6.5-7.4
				c-9.7-8.6-14.5-8.4-24-0.7c-7.1,5.8-13.2,12.9-19,20.1c-3.5,4.4-5.7,9.8-8.5,14.8c0.4,0.4,0.8,0.7,1.2,1.1
				c0.7-0.2,1.6-0.2,2.2-0.7c11.2-8.7,24.2-13.6,37.4-17.8C123.5,86,128.6,84.9,133.7,83.4z M59.7,144.6c2.6-7.6-2.6-14.5-11-16.2
				c-6.5-1.3-13.1,3.5-14.5,10.4c-0.3,1.4-1.4,3.5-2.5,3.8c-1.4,0.3-3.5-0.5-4.7-1.5c-2.5-2.2-4.9-4.5-8.5-4.1
				c-9.3,0-13.8,6.9-9.8,15.1c4,8.1,10.8,13.2,18.4,17.5c2.1,1.2,3.7,0.7,5.1-1.4c3.5-5.4,8.2-7.4,14.5-5.3c2.1,0.7,4,0.6,5.1-1.7
				C54.4,155.6,57.7,150.3,59.7,144.6z"/>
			<path fill="#F96969" d="M298.2,124.5c2.5,1.2,4.2,5,4.2,10.6c-0.8,4.8-4.2,9.8-8.8,14c-1.1,1-2.4,1.8-3.5,2.7
				c-2.1,1.8-3.6,1.5-5.1-1c-4.4-7.2-8.5-8.4-16.8-5.7c-1.2,0.4-3.4,0.3-3.9-0.4c-4.1-5.6-8.2-11.2-7.8-18.8c0.2-3,1.3-5,3.7-6.6
				c1.2-0.8,2.6-1.5,3.9-2.2c6.9-3.8,11.6-1.8,13.6,5.9c2.5,9.7,3,9.9,11,4.3c0.4-0.3,0.7-0.7,1.2-0.9
				C292.5,125.2,294.9,123,298.2,124.5z"/>
			<path fill="#5BC8E7" d="M287.6,200.8c1,8.2,0,16.2-4.1,23.6c-4.1,7.6-8.4,15.1-12.3,22.7c-1,2-1.1,4.4-1.5,6.7
				c-0.5,2.4-0.5,5-1.4,7.3c-0.4,1.1-2.6,2.7-3.1,2.4c-1.3-0.7-2.1-2.3-3-3.6c-0.2-0.4,0-1.3,0.3-1.9c1.1-2.1,2.9-4.8,0.4-6.1
				c-1.9-1-4.9,0-7.4,0.2c-0.1,0-0.3,0.2-0.4,0.2c-6.4,1.6-10.6,5-10.5,12.2c0,1.2-0.7,2.6-1.5,3.6c-1.1,1.3-2.5,2.3-3.8,3.4
				c-1.3-1.8-2.6-3.5-3.8-5.3c-0.2-0.3,0.1-1,0.1-1.5c0-4.6-1.2-5.6-5.7-4.5c-2.1,0.5-4.2,0.9-6.3,1.3c-0.7-5.7-1.1-11.5-2.1-17.2
				c-1.3-8.4-3.8-16.5-10.3-22.5c-4-3.7-8-7.5-12.6-10.2c-6.1-3.5-12.6-6.9-19.4-8.5c-14.2-3.3-28.3-0.8-41.8,4.5
				c-16.9,6.6-25.4,22.8-21.6,39.3c1.2,5.1,2.3,10.3,3.4,15.4c-2.8-0.4-5.5-0.6-8.3-1.1c-4.5-0.9-6.2,0.6-5.4,5.1
				c0.5,3.1-0.9,5.1-4.1,6.1c-2.9,0.9-4.4-0.7-5.3-3.1c-1-2.6-2-5.1,0.7-7.7c2.1-2.1,1.3-4.6-1.4-6.2c-4.3-2.5-8.6-5-12.8-7.6
				c-9.5-6-13.9-15.8-18.3-25.4c-1.4-3-2.3-6.2-3.9-9.2c-1-1.8-2.5-3.6-4.2-4.6c-7.8-4.1-13.1-10.6-17.3-18.1
				c-2.8-4.9-2.7-10.3-1.8-15.5c1-5.6,5.7-7.3,9.9-3.3c3.3,3.1,5.5,7.4,8.3,11.1c3,3.9,6.1,7.8,9.2,11.6c1.8,2.2,4.1,3.1,6.4,0.7
				c1.9-2.1,1.5-4.4-0.6-6.1c-5.8-4.8-8.7-11.7-12.8-17.6c-1.6-2.2-1.1-3.8,0.2-5.8c2.5-4.1,4.9-8.3,7.1-12.5
				c3.2-6,4.1-12.2,1.7-18.7c-0.9-2.3-0.4-3.9,1.1-5.9c10.4-13.3,23.6-22.8,39.2-28.9c19.1-7.5,38.7-12.7,59.6-11.7
				c23,1,43.9,7.7,62.4,21.7c3.3,2.5,5.9,5.8,9,8.6c1.8,1.7,3.6,3.9,6.4,1.6c2.2-1.8,1.8-4.3-0.9-7.3c-9.8-11-22.4-18-35.6-24
				c-1.1-0.5-2.1-0.9-3.2-1.3c-0.2-0.1-0.4-0.5-1-1.5c2-1.7,3.9-3.6,6.1-5.1c5.1-3.4,10.2-6.9,15.6-9.6c6.1-3,10-1.6,14.3,3.7
				c8.3,10.1,12.3,22.3,16.6,34.3c0.4,1.2,0,3.4-0.9,4.3c-3.1,3.1-6.2,6-6.4,10.8c-0.2,6.4,0.6,12.6,4.4,18c0.2,0.3,0.4,0.6,0.5,0.8
				c6.8,10.7,7.2,7.3-1.9,16.8c-2.1,2.2-4.3,4.2-6.4,6.2c-1.6,1.5-2.2,3.4-0.5,4.7c1.3,1,3.7,1.7,5.1,1.1c2.1-0.8,3.8-2.7,5.4-4.3
				c3.7-3.8,7.2-7.8,10.9-11.6c0.9-0.9,2-1.8,3.1-2.5c5.2-3.4,9-1.6,9.6,4.6c0.9,9.2-4.1,15.7-9.6,22.1c-1.5,1.8-3.5,3.2-4.5,5.2
				c-0.8,1.5-0.2,3.7-0.3,5.5c1.8,0,3.9,0.6,5.5,0c1.9-0.7,3.4-2.5,5-3.7c3.1,2.4,6.3,4.4,8.9,7
				C285.7,195.8,287.3,198.4,287.6,200.8z M224,116.6c1.2-0.8,2.6-3.6,2.1-4.2c-0.9-1.3-3.3-2.9-4.6-2.5c-5.4,1.4-10.7,3.2-16,5.3
				c-3.2,1.3-3.9,4.4-1.3,6.7c4.8,4.2,10,8.1,15.3,11.6c1.2,0.8,3.8-0.6,5.7-1c-0.5-1.7-0.6-3.9-1.7-5.1c-2.2-2.3-5.1-4.1-8.6-6.7
				C218.7,119,221.6,118.2,224,116.6z M191.2,121.9c0.6-0.9-0.8-3.1-1.2-4.6c-1.4,0.7-3.1,1.2-4.2,2.3c-1.8,1.8-2.9,4.9-5,5.8
				c-8.5,3.6-16.7,2.1-23.8-3.4c-5.9-4.5-5.6-4.8-10.6,0.7c-5.5,6-12.4,5.8-15.9-0.4c-1.1-2-2.2-4.7-5.1-3.1c-2.7,1.5-1.5,4-0.6,6.2
				c0.3,0.8,0.6,1.6,1.2,2.2c3.2,3,3.4,7,3.7,11c0.6,8.4,3.3,16.2,7.5,23.4c4.9,8.5,11.8,13.3,22.1,12.3c9.6-0.4,17.9-3.6,22.2-12.9
				c2.5-5.5,4.1-11.4,5.7-17.3C189.2,136.9,186.8,128.8,191.2,121.9z M103.4,128.8c3-2.3,2-6-1.5-7.5c-4.6-1.8-9.3-3.4-14-4.9
				c-2.5-0.8-5.4-0.6-6.2,2.3c-0.8,3,1.8,4.2,4.2,5.1c2.1,0.8,4.2,1.6,6.2,2.4c0,0.4-0.1,0.9-0.1,1.3c-2.4,1.3-5.2,2.3-7.3,4
				c-1.2,1-2.5,3.7-1.9,4.7c0.6,1.3,3.7,2.7,4.7,2.2C93,135.7,98.5,132.6,103.4,128.8z"/>
			<path d="M226.1,112.3c0.5,0.7-0.9,3.5-2.1,4.2c-2.4,1.6-5.3,2.4-9,4c3.5,2.7,6.3,4.4,8.6,6.7c1.1,1.2,1.2,3.3,1.7,5.1
				c-1.9,0.4-4.5,1.8-5.7,1c-5.4-3.5-10.5-7.4-15.3-11.6c-2.6-2.3-1.9-5.4,1.3-6.7c5.2-2.1,10.5-3.9,16-5.3
				C222.8,109.4,225.2,111,226.1,112.3z"/>
			<path fill="#FEFEFE" d="M221.5,244.4c0.9,5.7,1.4,11.4,2.1,17.2c-6,0.9-12,2.3-18.1,2.4c-10.2,0.3-20.5-0.4-30.8-0.4
				c-14.1,0-28.1,0.5-42.2,0.5c-4.4,0-8.8-1-13.2-1.6c-1.2-5.1-2.3-10.3-3.4-15.4c-3.8-16.5,4.6-32.7,21.6-39.3
				c13.5-5.3,27.5-7.8,41.8-4.5c6.8,1.6,13.3,5,19.4,8.5c4.6,2.6,8.6,6.5,12.6,10.2C217.7,227.9,220.2,236,221.5,244.4z"/>
			<path d="M204.9,15.3c1.4,6.4-1,11.8-3.9,16.9c-6,10.3-15,17.4-25.6,22.6c-1.4,0.7-3.6,0.9-5,0.4C161.5,52,153,47.9,145.7,42
				c-6.9-5.6-11.3-12.8-11.5-22.4c0.2-6.7,3.1-12.4,9.6-15.7c6.7-3.4,13.8-5.3,20.6-0.6c3.7,2.5,6.3,2.8,10.1,0.2
				C186-4.2,201.9,1.5,204.9,15.3z M197.1,23.8c2.4-5.7,0.2-12-4.6-14.7c-5.6-3.1-13.5-2-17,2.2c-4.8,5.9-4.8,5.9-10.5,0.7
				c-0.6-0.6-1.2-1.1-1.9-1.6c-5-3.7-10.2-3.3-15.4-0.6c-4.2,2.2-6.7,5.4-5.9,9.9c-0.3,7,2.4,12.3,7.6,15.7
				c6.6,4.3,13.6,8,20.6,11.8c1.1,0.6,3.1,0.8,4.1,0.2C184.1,42,192.6,34.7,197.1,23.8z"/>
			<path fill="#F96969" d="M192.4,9.1c4.8,2.7,7,9,4.6,14.7c-4.5,10.9-13,18.1-23,23.8c-1,0.6-3,0.4-4.1-0.2
				c-7-3.8-14-7.4-20.6-11.8c-5.2-3.4-7.9-8.7-7.6-15.7c-0.8-4.5,1.7-7.8,5.9-9.9c5.2-2.7,10.4-3.1,15.4,0.6c0.7,0.5,1.3,1,1.9,1.6
				c5.7,5.2,5.7,5.2,10.5-0.7C178.9,7.1,186.9,6.1,192.4,9.1z"/>
			<path d="M189.9,117.3c0.5,1.6,1.8,3.7,1.2,4.6c-4.4,7-2,15-4,22.2c-1.6,5.8-3.2,11.8-5.7,17.3c-4.3,9.3-12.6,12.5-22.2,12.9
				c-10.3,0.9-17.2-3.8-22.1-12.3c-4.2-7.3-7-15-7.5-23.4c-0.3-4-0.5-7.9-3.7-11c-0.6-0.5-0.9-1.4-1.2-2.2c-0.9-2.2-2.1-4.7,0.6-6.2
				c2.9-1.6,4,1.1,5.1,3.1c3.5,6.2,10.4,6.4,15.9,0.4c5-5.5,4.8-5.2,10.6-0.7c7.2,5.4,15.4,7,23.8,3.4c2.1-0.9,3.1-4,5-5.8
				C186.8,118.5,188.5,118,189.9,117.3z M181.7,137.1c0.4-3-1.1-4.6-4.1-3.9c-8.3,2-15.6-0.7-22.9-4.2c-1.2-0.6-3-1.1-4.1-0.6
				c-4.8,2.1-9.4,4.5-14.6,7c0.6,9,2.7,18.2,8.8,25.7c8.3,10.2,23,9,30.3-2C179.5,152.5,180.5,144.8,181.7,137.1z"/>
			<path fill="#F96969" d="M177.6,133.2c3-0.7,4.5,0.9,4.1,3.9c-1.1,7.7-2.1,15.4-6.6,22.1c-7.3,10.9-22,12.1-30.3,2
				c-6.1-7.5-8.2-16.7-8.8-25.7c5.2-2.6,9.8-5,14.6-7c1.1-0.5,2.9,0,4.1,0.6C162,132.5,169.3,135.3,177.6,133.2z"/>
			<path fill="#5BC8E7" d="M135.5,78.3c2.3,3.1,1.9,4-1.8,5.1c-5.1,1.5-10.3,2.6-15.3,4.2c-13.3,4.3-26.3,9.1-37.4,17.8
				c-0.6,0.4-1.5,0.5-2.2,0.7c-0.4-0.3-0.8-0.7-1.2-1.1c2.8-5,4.9-10.5,8.5-14.8c5.8-7.1,11.9-14.3,19-20.1c9.5-7.7,14.3-7.9,24,0.7
				C131.4,73,133.5,75.6,135.5,78.3z"/>
			<path d="M101.9,121.4c3.6,1.4,4.6,5.2,1.5,7.5c-5,3.7-10.4,6.8-15.9,9.7c-1,0.5-4.1-0.9-4.7-2.2c-0.5-1.1,0.7-3.7,1.9-4.7
				c2.1-1.7,4.8-2.7,7.3-4c0-0.4,0.1-0.9,0.1-1.3c-2.1-0.8-4.1-1.6-6.2-2.4c-2.4-0.9-5-2.1-4.2-5.1c0.8-3,3.7-3.1,6.2-2.3
				C92.6,118,97.3,119.6,101.9,121.4z"/>
			<path fill="#F96969" d="M48.6,128.4c8.5,1.7,13.6,8.6,11,16.2c-1.9,5.7-5.2,11-7.9,16.5c-1.1,2.3-3,2.4-5.1,1.7
				c-6.3-2.1-11,0-14.5,5.3c-1.3,2-3,2.6-5.1,1.4c-7.6-4.3-14.5-9.5-18.4-17.5c-4.1-8.2,0.4-15.1,9.8-15.1c3.6-0.4,5.9,1.9,8.5,4.1
				c1.2,1,3.3,1.8,4.7,1.5c1.1-0.2,2.2-2.3,2.5-3.8C35.5,131.9,42.2,127.1,48.6,128.4z"/>
		</g>
		<g>
		</g>
	</g>
</g>
</svg>
