<?xml version="1.0" encoding="utf-8"?>
<!-- Generator: Adobe Illustrator 27.9.0, SVG Export Plug-In . SVG Version: 6.00 Build 0)  -->
<svg version="1.1" id="Layer_1" xmlns="http://www.w3.org/2000/svg" xmlns:xlink="http://www.w3.org/1999/xlink" x="0px" y="0px"
	 viewBox="0 0 1241.5 1127.5" enable-background="new 0 0 1241.5 1127.5" xml:space="preserve">
<g id="_x30_feZ8X.tif">
	<g>
		<path display="none" fill="#FDFDFD" d="M412.8,1127.5c10.1-5.8,22.1-9.8,29.9-17.8c16-16.3,34.1-23.5,56.5-22.2
			c30.6,1.7,61.3,3.6,92,4.1c82.3,1.3,164.1-3.4,244.9-20c22.8-4.7,22.8-4.4,33.4,15.6c16.4,30.8,54.3,37.1,80.8,14.7
			c9.4-7.9,21.3-13.2,32.7-18.3c8.1-3.6,17.4-4.5,26-7c14.3-4.1,26.1-1.5,35.3,11.1c8.1,11.1,19,17.5,33.1,17.9
			c32.8,0.9,52.9-14.2,60.6-46.3c7.2-30.4,19.1-58.8,33.8-86.2c16.7-31.1,34.7-61.6,49.8-93.5c20.1-42.2,24.8-87,14.6-132.7
			c-4.2-18.7-15.4-32.5-35.1-37.2c-12-2.9-17.4-11.3-20.8-22c-22.6-70.4-45.6-140.6-67.8-211.2c-2.9-9.2-4.1-19.8-2.8-29.3
			c5.8-40.2,13.3-80.2,19.4-120.4c6.9-45.4,4.7-90.5-9.1-134.5c-10.9-35-34.4-56-70.6-63c-31.7-6.1-63.5-5.8-94.4,1.8
			c-35.8,8.8-70.8,21.2-106.3,31.4c-8.4,2.4-18.3,4.5-26.3,2.3c-37.4-10.7-75.6-15.8-114.2-19.4c-16.8-1.6-20.6-5-25.3-21.8
			c-9-32.3-20.6-63.4-41.4-90.3c-26.8-34.8-55-42-94.9-23.6C487,37.6,435,76.5,394.9,129.1c-23,30.1-42.7,62.8-62.1,95.4
			c-25,42.1-52.2,82.2-88.5,115.6c-13.7,12.6-15.9,12.7-25.8-3.6c-3.5-5.7-6.6-11.6-10.4-17.1c-26.2-37.8-68.6-57-108.2-44.9
			C50.2,289.8,18,323.9,4,374.5c-1.3,4.6-2.7,9.2-4,13.8"/>
		<path fill="#07090A" d="M0,388.3c1.3-4.6,2.7-9.2,4-13.8c14-50.6,46.2-84.7,95.9-99.9c39.6-12.1,82,7.1,108.2,44.9
			c3.8,5.5,6.9,11.4,10.4,17.1c9.9,16.2,12.1,16.2,25.8,3.6c36.2-33.4,63.4-73.5,88.5-115.6c19.4-32.6,39.1-65.3,62.1-95.4
			C435,76.5,487,37.6,547,9.8c39.9-18.4,68-11.2,94.9,23.6c20.8,26.9,32.4,58,41.4,90.3c4.7,16.8,8.4,20.2,25.3,21.8
			c38.5,3.6,76.7,8.8,114.2,19.4c7.9,2.3,17.9,0.1,26.3-2.3c35.5-10.1,70.4-22.6,106.3-31.4c30.9-7.6,62.7-7.9,94.4-1.8
			c36.3,7,59.7,28,70.6,63c13.8,44.1,16,89.1,9.1,134.5c-6.1,40.2-13.6,80.1-19.4,120.4c-1.4,9.5-0.1,20.1,2.8,29.3
			c22.2,70.5,45.1,140.8,67.8,211.2c3.4,10.7,8.8,19.1,20.8,22c19.7,4.7,30.9,18.5,35.1,37.2c10.2,45.7,5.5,90.5-14.6,132.7
			c-15.1,31.9-33.1,62.4-49.8,93.5c-14.7,27.4-26.6,55.8-33.8,86.2c-7.6,32.1-27.8,47.1-60.6,46.3c-14.1-0.4-25-6.9-33.1-17.9
			c-9.2-12.6-21-15.2-35.3-11.1c-8.6,2.5-17.9,3.4-26,7c-11.4,5-23.3,10.3-32.7,18.3c-26.5,22.4-64.4,16.1-80.8-14.7
			c-10.6-20-10.7-20.2-33.4-15.6c-80.8,16.6-162.7,21.3-244.9,20c-30.7-0.5-61.3-2.4-92-4.1c-22.4-1.3-40.6,5.9-56.5,22.2
			c-7.9,8-19.8,12-29.9,17.8c-3.3,0-6.7,0-10,0c-0.3-0.6-0.5-1.4-0.9-1.6c-31.2-11.9-42.9-36.6-45.4-67.8c-0.5-6.3-1.7-12.6-3-18.7
			c-6.3-28.6-20.7-53.5-38-76.4c-45.5-60-74.3-126.8-85.3-201.2c-3.5-23.8-15.7-40.9-34.1-56.3c-30.9-25.8-61.5-52.6-88.8-82.1
			C58.9,571,24,510.3,5.3,441c-1.8-6.8-3.5-13.7-5.3-20.6C0,409.7,0,399,0,388.3z M175.2,346c-11.5-29.2-49.1-46.8-75.9-32.8
			c-33.6,17.6-54.2,46.2-57.6,84.7c-2.6,29.2,5.3,56.8,17.4,83.3c27.5,60,67.1,111.1,114.4,156.6c12.1,11.7,25,22.5,39.7,35.7
			c0-15.2,0.8-27.5-0.2-39.5c-1.2-15.5-3.2-30.9-5.9-46.2c-3.9-21.9-10-43.6-12.9-65.6c-4.2-32.8,1-65.1,8.8-97.1
			c5.3-21.4,0.1-40.8-14.3-57.6C184.2,360.3,179.7,353.2,175.2,346z M830.1,1032.9c13-2.8,26-5.8,39.1-8.4
			c19.8-3.9,28.8,3.7,30.2,23.3c0.6,8,3.4,16.2,6.8,23.6c3.9,8.4,9.2,8.7,15.2,1.2c9.8-12.2,22.5-20,37.2-24.2
			c18.3-5.2,36.7-10.1,55.3-14c20.4-4.3,37.5,2.2,50.8,18.4c1.9,2.3,3.9,4.6,6.1,6.6c10.6,9.6,18.9,8.4,25.8-4
			c2.7-4.9,4.5-10.4,6.4-15.7c8.1-21.5,14.4-43.9,24.5-64.4c15.9-32.3,34.6-63.2,51.5-95.1c18.3-34.4,26.6-71.1,22.2-110.2
			c-1.1-9.5-2.3-19.2-13.5-22.3c-28.4-7.9-39.6-29.4-45.2-55.7c-1.3-6.2-2.6-12.4-4.6-18.4c-8.2-25-18-49.6-24.7-74.9
			c-23.6-88.4-57.5-172.2-109.4-248c-52.4-76.5-121.3-132.5-212.2-154.6c-147.9-36.1-286.3-12.5-412.2,75.4
			c-35.4,24.7-70,51-97.4,84.4c-41.8,51.1-54.9,111.2-47.6,175.9c4.2,37.6,17.7,71.5,42.8,100.8c11.9,13.9,21.5,29.7,31.6,45
			c6.2,9.3,4.4,16.6-4.3,23.6c-9.7,7.8-17.5,7.3-26.3-2c-5.9-6.3-11.5-12.9-17.2-19.4c-2,7.8-2.6,14.4-1.8,20.9
			c2.1,16.6,4.8,33,7.2,49.5c10,67.8,30.6,131.3,75.9,184.6c4.1,4.8,7.5,10.2,11.1,15.4c24,34.9,42.2,72,42.7,115.6
			c0.1,8.5,3.5,15.8,12.3,18.8c9,3.2,13.5-3.4,18-9.2c11.4-14.9,24.3-27.5,44.2-29.9c2.9,0.5,5.9,1.4,8.8,1.5
			c52.3,2,104.5,5.3,156.8,5.5C701.6,1052.9,766.2,1046.2,830.1,1032.9z M1074.2,391.2c1.1,0,2.2,0,3.3-0.1c1.6-3.7,4-7.3,4.7-11.2
			c7.5-39,14.5-78.2,11.1-118.1c-1.7-20.1-5-40.4-10.5-59.8c-5.7-20.2-21.4-31.4-42.4-34.8c-44.4-7.2-87,1.4-129.1,14.4
			c-7.5,2.3-14.8,4.9-24.4,8.1C967.4,242.1,1029.8,308.3,1074.2,391.2z M378.8,220.9c0.5,0.5,1,1.1,1.5,1.6c2.6-1,5.4-1.9,7.9-3.1
			c11.7-5.6,23.4-11.4,35.1-17c67.2-32.1,135.9-59.4,212-60.2c8.5-0.1,10.2-5.3,7.7-12.3c-6.2-17.3-11.8-34.8-19.4-51.4
			c-4.9-10.7-12-20.9-19.8-29.8c-10.3-11.8-22.4-13.3-36.2-6.1c-72.7,37.9-133.5,89.1-177.3,159.2
			C386.3,208.1,382.6,214.5,378.8,220.9z"/>
		<path fill="#5BC7E5" d="M470.9,1045.6c-19.9,2.4-32.8,15-44.2,29.9c-4.5,5.8-9,12.4-18,9.2c-8.8-3.1-12.2-10.3-12.3-18.8
			c-0.5-43.7-18.8-80.7-42.7-115.6c-3.6-5.2-7-10.6-11.1-15.4c-45.3-53.3-65.8-116.8-75.9-184.6c-2.4-16.5-5.1-33-7.2-49.5
			c-0.8-6.5-0.1-13.1,1.8-20.9c5.7,6.5,11.3,13.1,17.2,19.4c8.8,9.3,16.5,9.8,26.3,2c8.7-7,10.5-14.3,4.3-23.6
			c-10.1-15.3-19.8-31.1-31.6-45c-25.1-29.3-38.6-63.2-42.8-100.8c-7.3-64.7,5.8-124.8,47.6-175.9c27.4-33.5,62-59.7,97.4-84.4
			c125.8-87.9,264.3-111.4,412.2-75.4c90.9,22.2,159.7,78.2,212.2,154.6c51.9,75.8,85.9,159.5,109.4,248
			c6.8,25.4,16.5,49.9,24.7,74.9c2,6,3.3,12.2,4.6,18.4c5.6,26.3,16.8,47.8,45.2,55.7c11.2,3.1,12.4,12.8,13.5,22.3
			c4.5,39.1-3.9,75.8-22.2,110.2c-16.9,31.8-35.6,62.8-51.5,95.1c-10.1,20.5-16.4,42.9-24.5,64.4c-2,5.3-3.7,10.8-6.4,15.7
			c-6.9,12.4-15.2,13.5-25.8,4c-2.2-2-4.2-4.3-6.1-6.6c-13.3-16.2-30.5-22.7-50.8-18.4c-18.6,3.9-37,8.8-55.3,14
			c-14.7,4.2-27.4,12-37.2,24.2c-6,7.4-11.3,7.2-15.2-1.2c-3.4-7.4-6.2-15.6-6.8-23.6c-1.4-19.6-10.4-27.2-30.2-23.3
			c-13.1,2.6-26.1,5.6-39.1,8.4c-0.5-3.9-0.4-8.1-1.7-11.8c-19.8-54.6-39.7-109.2-59.8-163.7c-5.4-14.5-11.3-28.9-17-43.3
			c3,0,6.1-0.5,8.9,0.2c27.6,6.6,51.9-0.9,74.8-16.5c11.5-7.8,24.2-14.1,36.6-20.6c6.5-3.4,8.3-8.3,6.9-14.9
			c-2.4-11.6-12.4-19.3-23.7-15.3c-16.2,5.6-32,12.8-47,21.1c-12.7,7.1-24.9,11.1-38.9,5.4c-14.9-6.1-17.7-19.2-6.5-30.6
			c18.4-18.7,40.3-31.6,65.4-39.4c6-1.9,13-2.8,17.7-6.5c5.1-3.9,10.4-10.1,11.5-16c2.5-14.1-7.9-22.6-23.3-20
			c-30.2,5.1-56.9,18.4-81.5,36.5c-22.2,16.3-38.3,36.1-38.3,65.4c-2.1-2.5-4.3-4.9-6.3-7.5c-30.1-40.8-69.3-66.8-120.9-68.2
			c-89.9-2.5-162.4,68.6-164.1,158.5c-1.1,56.1,8.9,110,31,161.6C459.3,1020.2,465.2,1032.8,470.9,1045.6z M678.8,430.1
			c32.7,0.1,56.9-10.7,73.9-32.8c10-13.1,4.5-29.5-11.1-30.6c-5.8-0.4-12.9,3-17.8,6.8c-13.6,10.6-28.2,18.1-45.6,18.2
			c-20,0.1-35.8-7-43.7-26.9c-1.7-4.3-4.1-8.4-6.9-12.1c-6.1-7.9-11.9-8.8-19.7-2.8c-5.3,4-9.7,9.1-14.5,13.7
			c-11.6,11.2-25.8,9.9-39.6,6.9c-11.4-2.5-11.7-13.1-13.1-22.4c-1.5-10.8-9.5-11.3-18-11.4c-9-0.1-17.1,1-18.9,11.9
			c-3.2,19.7,1.7,36.5,18.7,48.4c21.6,15.1,45,19.4,70.4,11.2c7.8-2.5,15.9-5,22.8,1.3C633.7,425.9,655.5,430.2,678.8,430.1z
			 M845,345.7c-9.4,3.6-19,5.8-27,10.8c-12.1,7.5-12.9,16.3-4.3,27.8c12.7,17.2,25.5,34.3,38.4,51.3c5.7,7.4,11.1,15.3,18.1,21.3
			c4.6,3.9,12.1,7.1,17.9,6.5c22.9-2.6,35.4-25.4,25.7-46.3c-11.4-24.6-28-45.4-49.4-62C859.1,350.9,852.2,349.1,845,345.7z
			 M409.5,294.9c-30.9,3.7-55.4,18.3-72.1,44.7c-3.5,5.6-4.8,13.2-5.4,20c-1.1,12.3,4.4,22.2,15,28.5c9.9,5.9,19.9,3.1,28.1-3.3
			c18.3-14.4,36.4-29.3,53.9-44.7c9.1-8,6.5-17.9,2-27.6C426.7,303,422.3,294,409.5,294.9z"/>
		<path fill="#FCFCFD" d="M470.9,1045.6c-5.7-12.7-11.5-25.4-17-38.2c-22.1-51.6-32.1-105.5-31-161.6
			c1.7-89.9,74.2-161.1,164.1-158.5c51.5,1.4,90.8,27.4,120.9,68.2c1.9,2.6,4.2,5,6.3,7.5c3.8,23.4,18.9,38.6,37.5,51.2
			c5.7,14.4,11.6,28.8,17,43.3c20.1,54.5,40,109.1,59.8,163.7c1.3,3.6,1.2,7.8,1.7,11.8c-63.8,13.3-128.5,20-193.6,19.7
			c-52.3-0.2-104.5-3.5-156.8-5.5C476.7,1047,473.8,1046.1,470.9,1045.6z"/>
		<path fill="#5BC7E5" d="M188.8,367.5c14.5,16.8,19.6,36.2,14.3,57.6c-7.9,32-13.1,64.3-8.8,97.1c2.9,22.1,9,43.7,12.9,65.6
			c2.7,15.3,4.7,30.7,5.9,46.2c0.9,12.1,0.2,24.3,0.2,39.5c-14.7-13.2-27.6-24-39.7-35.7c-47.3-45.5-86.9-96.6-114.4-156.6
			c-12.1-26.5-20-54.1-17.4-83.3c3.4-38.5,24-67.1,57.6-84.7c26.8-14,64.3,3.6,75.9,32.8c-2-0.1-4,0.1-5.9-0.3
			c-17.6-3.7-26.9,5-24.4,22.9c1.7,11.9,11.3,20.2,24.5,20.9c9.8,0.6,13.8-3.7,17-18C186.7,370.1,187.9,368.9,188.8,367.5z
			 M106.1,429.1c-0.2,22.2,10.5,36.8,28.7,39.1c27.5,3.4,44.5-19.7,35.1-47.9c-5.5-16.6-23.5-27.4-40.9-24.7
			c-16.9,2.7-22.6,10.8-22.9,32.5C106.1,428.5,106.1,428.8,106.1,429.1z M92,417c0,0-0.1,0-0.1,0c0-3.7,0.5-7.4-0.1-10.9
			c-1.5-9-7.6-13.8-16.2-15.3c-8.2-1.4-16.5-1.1-21,7.4c-5.8,11-6.2,22.3,1,33.1c5.2,7.9,16.5,11.9,25.4,9.7
			c10.4-2.6,9.8-11.2,11-18.9C92.2,420.4,92,418.7,92,417z M128.1,353c-0.1-18.6-8.7-25.8-24.2-20c-13.7,5.1-22,26.8-14.2,39.4
			c2.2,3.5,7.6,6.9,11.7,7.1C117.5,380.4,128.1,369.2,128.1,353z"/>
		<path fill="#5BC7E5" d="M1074.2,391.2c-44.4-82.9-106.8-149.1-187.2-201.5c9.6-3.2,16.9-5.8,24.4-8.1
			c42.1-13,84.7-21.6,129.1-14.4c21,3.4,36.7,14.6,42.4,34.8c5.5,19.4,8.8,39.7,10.5,59.8c3.4,39.9-3.6,79.1-11.1,118.1
			c-0.7,3.9-3.1,7.5-4.7,11.2C1076.4,391.2,1075.3,391.2,1074.2,391.2z"/>
		<path fill="#5BC7E5" d="M378.8,220.9c3.8-6.4,7.6-12.9,11.5-19.2c43.8-70.1,104.6-121.3,177.3-159.2c13.9-7.2,25.9-5.7,36.2,6.1
			c7.8,8.9,14.9,19.1,19.8,29.8c7.6,16.6,13.2,34.2,19.4,51.4c2.5,7,0.8,12.2-7.7,12.3c-76.1,0.9-144.8,28.1-212,60.2
			c-11.7,5.6-23.4,11.4-35.1,17c-2.6,1.2-5.3,2.1-7.9,3.1C379.8,222,379.3,221.5,378.8,220.9z"/>
		<path fill="#FCFCFD" d="M188.8,367.5c-0.8,1.4-2.1,2.7-2.4,4.1c-3.2,14.3-7.2,18.5-17,18c-13.2-0.8-22.8-9-24.5-20.9
			c-2.5-17.9,6.8-26.6,24.4-22.9c1.9,0.4,3.9,0.2,5.9,0.3C179.7,353.2,184.2,360.3,188.8,367.5z"/>
		<path fill="#07090A" d="M751.6,814.1c-18.6-12.6-33.7-27.7-37.5-51.2c0-29.3,16.1-49.1,38.3-65.4c24.6-18.1,51.2-31.3,81.5-36.5
			c15.4-2.6,25.8,5.9,23.3,20c-1,5.9-6.4,12.1-11.5,16c-4.8,3.7-11.7,4.6-17.7,6.5c-25,7.7-46.9,20.7-65.4,39.4
			c-11.2,11.4-8.4,24.5,6.5,30.6c14,5.7,26.2,1.6,38.9-5.4c15-8.3,30.8-15.5,47-21.1c11.3-3.9,21.4,3.8,23.7,15.3
			c1.3,6.5-0.4,11.5-6.9,14.9c-12.4,6.5-25,12.8-36.6,20.6c-22.9,15.6-47.2,23-74.8,16.5C757.6,813.7,754.5,814.2,751.6,814.1z"/>
		<path fill="#07090A" d="M678.8,430c-23.3,0.2-45.1-4.2-63.1-20.6c-6.9-6.3-15-3.8-22.8-1.3c-25.4,8.2-48.8,3.8-70.4-11.2
			c-17-11.9-21.8-28.7-18.7-48.4c1.7-10.9,9.9-12,18.9-11.9c8.5,0.1,16.4,0.7,18,11.4c1.3,9.3,1.6,19.9,13.1,22.4
			c13.8,3,28,4.3,39.6-6.9c4.8-4.6,9.3-9.7,14.5-13.7c7.8-6,13.7-5.1,19.7,2.8c2.8,3.7,5.2,7.8,6.9,12.1c7.9,19.9,23.8,27,43.7,26.9
			c17.5-0.1,32-7.6,45.6-18.2c4.9-3.8,12-7.2,17.8-6.8c15.6,1.1,21.1,17.5,11.1,30.6C735.7,419.4,711.6,430.1,678.8,430z"/>
		<path fill="#07090A" d="M845,345.7c7.2,3.3,14.1,5.2,19.4,9.3c21.4,16.6,38,37.5,49.4,62c9.7,20.9-2.8,43.7-25.7,46.3
			c-5.7,0.6-13.3-2.5-17.9-6.5c-7-5.9-12.4-13.9-18.1-21.3c-13-17-25.7-34.1-38.4-51.3c-8.6-11.6-7.8-20.3,4.3-27.8
			C825.9,351.6,835.5,349.4,845,345.7z"/>
		<path fill="#07090A" d="M409.5,294.9c12.9-0.9,17.3,8.2,21.6,17.5c4.5,9.7,7.1,19.7-2,27.6c-17.6,15.4-35.6,30.2-53.9,44.7
			c-8.2,6.5-18.1,9.2-28.1,3.3c-10.6-6.3-16.1-16.1-15-28.5c0.6-6.8,1.8-14.4,5.4-20C354.1,313.1,378.5,298.6,409.5,294.9z"/>
		<path fill="#FCFCFD" d="M106.1,429.1c0-0.3,0-0.7,0-1c0.3-21.7,6-29.8,22.9-32.5c17.4-2.8,35.4,8.1,40.9,24.7
			c9.3,28.2-7.6,51.3-35.1,47.9C116.6,466,105.9,451.4,106.1,429.1z"/>
		<path fill="#FCFCFD" d="M92,417c0,1.7,0.2,3.4,0,5c-1.2,7.7-0.6,16.4-11,18.9c-8.9,2.2-20.1-1.8-25.4-9.7
			c-7.2-10.8-6.7-22.1-1-33.1c4.5-8.5,12.8-8.8,21-7.4c8.6,1.5,14.7,6.3,16.2,15.3c0.6,3.5,0.1,7.3,0.1,10.9
			C91.9,417,91.9,417,92,417z"/>
		<path fill="#FCFCFD" d="M128.1,353c0.1,16.2-10.6,27.4-26.6,26.5c-4.1-0.2-9.5-3.6-11.7-7.1c-7.8-12.6,0.5-34.2,14.2-39.4
			C119.3,327.2,128,334.4,128.1,353z"/>
	</g>
</g>
</svg>
