<?xml version="1.0" encoding="utf-8"?>
<!-- Generator: Adobe Illustrator 27.9.0, SVG Export Plug-In . SVG Version: 6.00 Build 0)  -->
<svg version="1.1" xmlns="http://www.w3.org/2000/svg" xmlns:xlink="http://www.w3.org/1999/xlink" x="0px" y="0px"
	 viewBox="0 0 1083 1083" enable-background="new 0 0 1083 1083" xml:space="preserve">
<g id="Layer_2">
</g>
<g id="Layer_1">
	<path fill="#76CCE7" d="M1083,541.5c0,182.4-90.2,343.7-228.3,441.8c-88.4,62.8-196.5,99.7-313.2,99.7s-224.8-36.9-313.2-99.7
		C90.2,885.2,0,723.9,0,541.5c0-133.9,48.6-256.5,129.2-351C228.5,73.9,376.4,0,541.5,0s313,73.9,412.3,190.5
		C1034.4,285,1083,407.6,1083,541.5z"/>
	<g id="jCQajx_00000131331729293242247100000010017762546797770940_">
		<g>
			<path fill="#76CCE7" d="M926.8,211H156.2C80.9,299.3,35.5,413.9,35.5,539c0,170.4,84.2,321.1,213.4,412.8h585.3
				c129.1-91.7,213.3-242.4,213.3-412.8C1047.5,413.9,1002.1,299.3,926.8,211z M727.5,518.5c7,0.5,9.9,5.5,10.5,11.6
				c0.6,5.6-5.4,11.5-10.6,11.4c-7.1-0.1-11.8-4.5-11.9-11C715.4,523.9,720.9,518,727.5,518.5z M241.2,634.2
				c-20.5,25.6-45.9,44-78.6,50.4c-26,5.1-48.6-1.4-67.1-21c-19-20.1-37.6-67.4-37-103.5c3.4-31.6,16.9-67,47.2-94.5
				c11.5-10.4,25.2-17.1,40.7-17.7c45.5-1.6,87.6,16.3,108.7,58.9C277.5,551.8,272.9,594.8,241.2,634.2z M677.2,655.4
				c-5.4,0.8-6,3.9-6.3,8.4c-0.9,13.8-2,27.6-3.3,41.3c-0.6,6.2-3.4,12.2-10.3,11.5c-6.8-0.7-9.3-6.5-9-13.5
				c0.4-10.7,0.6-21.4,0.1-32.1c-0.1-2.6-2.5-6.3-4.9-7.5c-10.5-5.2-16.6-15.6-15.1-27.5c0.4-3.7,0.3-7.4,0.4-11.1
				c-29.7-0.9-54-14.6-77.8-32.1c-1.7,1.3-3.9,3.1-6.1,4.9c-18.9,15.7-40.6,25.7-64.7,29.7c-24.7,4.1-49.5-12.9-55.5-37
				c-2-8.1-2.7-16.4,5-22.2c7.7-5.8,15.3-3,22.7,1.2c6.6,3.7,14.4,11.4,19.9,10.1c13.7-3.5,27-10,39.1-17.5
				c7.2-4.5,12.5-12.6,17.5-19.9c9.9-14.3,23.8-17.8,38.2-7.8c7.3,5.1,13.7,11.5,20.3,17.6c12.2,11.3,26.9,16.9,43,17.6
				c5.8,0.3,11.9-3.1,17.6-5.6c6-2.6,11.4-6.9,17.6-9.2c16.8-6.2,29.7,1.1,33.8,18.7v0c2.1,0.2,4,0.6,5.8,1.2
				c1.8,0.6,3.5,1.3,5.1,2.2c1.6,0.9,3,1.9,4.4,3c0.3,0.2,0.5,0.5,0.8,0.7c0.1,0,0.1,0.1,0.2,0.2c0.3,0.3,0.6,0.6,0.9,0.9
				c0.3,0.4,0.7,0.7,1,1.1c0.3,0.4,0.6,0.7,0.9,1.1c0,0,0,0.1,0.1,0.1c0.2,0.3,0.5,0.7,0.7,1c0.1,0.1,0.2,0.2,0.2,0.3
				c0.2,0.3,0.4,0.6,0.5,0.9c0.1,0.1,0.1,0.2,0.2,0.3c0.2,0.4,0.5,0.8,0.7,1.1c0,0,0,0,0,0c0.2,0.3,0.4,0.7,0.5,1
				c0.3,0.5,0.5,1.1,0.7,1.6c0.4,0.9,0.7,1.9,1,2.9c0.1,0.4,0.3,0.9,0.4,1.3c0.1,0.3,0.2,0.6,0.2,0.9c0,0.1,0.1,0.2,0.1,0.3
				c0.1,0.3,0.1,0.6,0.2,0.8c0.1,0.3,0.1,0.6,0.2,0.9c0,0.2,0.1,0.3,0.1,0.5c0,0.3,0.1,0.6,0.1,0.9c0,0.2,0.1,0.5,0.1,0.8
				c0.1,0.4,0.1,0.9,0.1,1.3c0,0.3,0,0.6,0,0.9c0,0.3,0,0.5,0,0.8c0.3,9-2.5,18.6-8.7,26.7C705.8,642.8,694.2,652.9,677.2,655.4z
				 M732.1,667.3c-8.1,0.2-17.2-6.6-17-12.7c0.2-6.1,9.6-16,15.3-16c7.4,0,13.1,6.2,13.2,14.2C743.7,661.7,739.3,667.2,732.1,667.3z
				 M993,650.7c-42.4,42-102.9,45.6-145.2,5.9c-27.3-25.5-41.7-57.8-37.6-97.6c1.7-16.2,0.5-32.9,5.8-48.6
				c8.5-25.1,23-44.9,49.7-53.7c18.2-6,36.4-11.8,55.3-10.9c24.5-1.3,45.7,5.7,63.9,21.3c10.1,8.6,21.6,15.8,30.1,25.7
				c14.2,16.4,19.2,36.6,17.3,58.4C1029.1,588.3,1020.4,623.5,993,650.7z"/>
			<path fill="#464848" d="M921,445.8c24.5-1.3,45.6,5.7,63.9,21.3c10.1,8.6,21.6,15.8,30.1,25.7c14.2,16.4,19.2,36.6,17.3,58.4
				c-3.3,37.1-12,72.4-39.4,99.5c-42.4,42-102.9,45.5-145.2,5.9c-27.3-25.6-41.7-57.8-37.6-97.6c1.7-16.2,0.4-32.9,5.7-48.6
				c8.5-25.1,23-44.9,49.7-53.7C883.9,450.8,902.1,445,921,445.8z"/>
			<path fill="#464848" d="M58.6,560.1c3.4-31.6,16.9-67,47.3-94.5c11.5-10.4,25.2-17.1,40.7-17.7c45.5-1.6,87.5,16.3,108.7,58.9
				c22.3,44.9,17.7,87.9-14,127.3c-20.5,25.5-45.9,44-78.6,50.4c-26,5.1-48.6-1.4-67.1-21C76.6,643.5,57.9,596.3,58.6,560.1z"/>
			<path fill="#464848" d="M628.8,625c-29.7-0.9-54-14.6-77.8-32.1c-1.7,1.4-3.9,3.1-6.1,4.9c-18.9,15.7-40.6,25.7-64.7,29.7
				c-24.7,4.1-49.5-12.9-55.5-37c-2-8.1-2.7-16.4,5.1-22.2c7.7-5.8,15.3-3,22.7,1.2c6.6,3.7,14.4,11.5,19.9,10.1
				c13.7-3.5,27-10,39.1-17.5c7.2-4.5,12.5-12.6,17.5-19.9c9.9-14.3,23.8-17.8,38.2-7.8c7.3,5.1,13.7,11.5,20.3,17.6
				c12.2,11.3,26.9,16.9,43,17.6c5.8,0.3,11.9-3.1,17.6-5.6c6-2.6,11.4-6.9,17.6-9.2c16.8-6.2,29.7,1.1,33.8,18.7
				c-1.5,12.2-8.6,20.3-18.9,26c-1.7,1-3.5,2-4.8,3.3C662.6,615.9,647.8,624.9,628.8,625z"/>
			<path fill="#D74F53" d="M628.8,625c19-0.1,33.8-9.1,46.8-22c1.4-1.4,3.1-2.4,4.8-3.3c10.4-5.8,17.4-13.9,18.9-26
				c25.8,2.7,33.2,34.4,16.7,55.8c-10.3,13.4-21.9,23.5-38.9,26.1c-5.4,0.8-6,3.9-6.3,8.4c-0.9,13.8-2.1,27.6-3.3,41.4
				c-0.6,6.2-3.4,12.2-10.3,11.5c-6.8-0.7-9.3-6.5-9-13.5c0.4-10.7,0.6-21.4,0.1-32.1c-0.1-2.6-2.5-6.3-4.9-7.5
				c-10.5-5.2-16.6-15.6-15.1-27.5C628.8,632.4,628.7,628.7,628.8,625z"/>
			<path fill="#D74F53" d="M743.6,652.9c0.1,8.8-4.3,14.3-11.5,14.5c-8.1,0.2-17.2-6.6-17.1-12.7c0.2-6.1,9.6-16,15.3-16
				C737.9,638.7,743.5,644.8,743.6,652.9z"/>
			<path fill="#D74F53" d="M715.5,530.5c-0.1-6.6,5.5-12.4,12-12c7,0.5,9.9,5.5,10.5,11.6c0.6,5.6-5.4,11.5-10.6,11.4
				C720.3,541.4,715.5,536.9,715.5,530.5z"/>
		</g>
	</g>
</g>
</svg>
